<svg id="Layer_1" data-name="Layer 1" xmlns="http://www.w3.org/2000/svg" width="55" height="45" viewBox="0 0 55 45">
  <defs>
    <style>
      .cls-1, .cls-2 {
        fill: #c9a403;
      }

      .cls-1 {
        opacity: 0.4;
      }
    </style>
  </defs>
  <g>
    <path class="cls-1" d="M33,29.91l6.53,6.5V3.4a2.5,2.5,0,1,1,5,0v33l6.14-6.17a2.5,2.5,0,0,1,3.55,3.53L43.76,44.2h0a1.91,1.91,0,0,1-.38.31,2.12,2.12,0,0,1-.2.12l-.23.12-.26.08-.21.06h0a2.33,2.33,0,0,1-1,0h0l-.21-.06L41,44.76h0l-.22-.12-.19-.1h0a3.11,3.11,0,0,1-.28-.23l-.1-.08h0L29.42,33.46A2.5,2.5,0,1,1,33,29.91Z"/>
    <path class="cls-2" d="M.73,12.18,11.14,1.7h0a2.85,2.85,0,0,1,.38-.31l.21-.11A1.55,1.55,0,0,1,12,1.15a1.29,1.29,0,0,1,.28-.08A1.06,1.06,0,0,1,12.43,1,2.63,2.63,0,0,1,12.92,1H13a3.15,3.15,0,0,1,.43.05,1.66,1.66,0,0,1,.21.06l.26.08a1.67,1.67,0,0,1,.23.12l.2.11a2.17,2.17,0,0,1,.29.24l.09.07h0L25.48,12.44A2.5,2.5,0,1,1,22,16l-6.53-6.5v33a2.5,2.5,0,0,1-5,0v-33L4.28,15.71A2.5,2.5,0,0,1,.73,12.18Z"/>
  </g>
</svg>
