<svg id="Layer_1" data-name="Layer 1" xmlns="http://www.w3.org/2000/svg" width="50" height="55" viewBox="0 0 50 55">
  <path d="M39.92.66,45.34,5.4a1,1,0,0,1,.17,1.31A25.29,25.29,0,0,0,41.1,23.09h-13V5.58A20,20,0,0,0,38.6.68,1,1,0,0,1,39.92.66ZM4.66,5.4,10.07.67a1,1,0,0,1,1.33,0A20,20,0,0,0,22,5.58V23.09H8.9A25.29,25.29,0,0,0,4.49,6.71,1,1,0,0,1,4.66,5.4ZM18.29,50c-2.63-1-5.35-1.94-7.64-6.07a1,1,0,0,0-.75-.51H9.76a1,1,0,0,0-.72.3L7.51,45.24a1,1,0,0,1-1.42,0l0-.05L.76,39.25a1,1,0,0,1,.1-1.42l0,0a23.37,23.37,0,0,0,6.45-8.63H22v22.5A17.07,17.07,0,0,0,18.29,50Zm6.29,4.36a8.66,8.66,0,0,0-.6-.82V28.17a1,1,0,0,0-1-1H8.08c.2-.67.38-1.34.52-2H23a1,1,0,0,0,1-1V5.77c.34,0,.68,0,1,0s.68,0,1,0V24.1a1,1,0,0,0,1,1H41.4c.14.69.32,1.36.52,2H27a1,1,0,0,0-1,1V53.54a8.66,8.66,0,0,0-.6.82.5.5,0,0,1-.7.13.57.57,0,0,1-.14-.13ZM44,45.19a1,1,0,0,1-1.42.09l0,0L41,43.71a1,1,0,0,0-1.44,0,1.28,1.28,0,0,0-.17.22c-2.29,4.13-5,5.12-7.64,6.07a17.07,17.07,0,0,0-3.66,1.68V29.18H42.67a23.37,23.37,0,0,0,6.45,8.63,1,1,0,0,1,.13,1.42v0Z"/>
</svg>
